<svg width="43" height="42" viewBox="0 0 43 42" fill="none" xmlns="http://www.w3.org/2000/svg">
<path d="M11.8141 21C11.8141 15.91 15.946 11.7874 21.0476 11.7874C23.5984 11.7874 25.9105 12.8143 27.5812 14.4812L29.1773 12.8887C27.1038 10.82 24.2249 9.52515 21.0476 9.52515C14.7079 9.52515 9.56165 14.6598 9.56165 20.9851H11.8141V21Z" fill="url(#paint0_linear_202_812)"/>
<path d="M21.0476 0C9.42742 0 0 9.40609 0 21C0 32.5939 9.42742 42 21.0476 42C32.6678 42 42.0952 32.5939 42.0952 21C42.0952 9.40609 32.6827 0 21.0476 0ZM21.0476 38.7555C11.2324 38.7555 3.26678 30.8079 3.26678 21.0149C3.26678 11.2218 11.2324 3.27427 21.0476 3.27427C30.8629 3.27427 38.8285 11.2218 38.8285 21.0149C38.8285 30.8079 30.8778 38.7555 21.0476 38.7555Z" fill="url(#paint1_linear_202_812)"/>
<path d="M29.2071 12.8739L21.6741 18.9462C21.4801 18.8867 21.2713 18.8569 21.0625 18.8569C19.8691 18.8569 18.8995 19.8243 18.8995 21.0149C18.8995 22.2056 19.8691 23.173 21.0625 23.173C22.2558 23.173 23.2254 22.2056 23.2254 21.0149C23.2254 20.8066 23.1956 20.5982 23.1359 20.4047L29.2071 12.8739Z" fill="url(#paint2_linear_202_812)"/>
<defs>
<linearGradient id="paint0_linear_202_812" x1="29.9661" y1="8.26984" x2="11.8665" y2="17.8835" gradientUnits="userSpaceOnUse">
<stop offset="0.3125" stop-color="#1E5992"/>
<stop offset="1" stop-color="white" stop-opacity="0"/>
</linearGradient>
<linearGradient id="paint1_linear_202_812" x1="59.2842" y1="-6.30741" x2="5.03137" y2="32.6226" gradientUnits="userSpaceOnUse">
<stop stop-color="#1E6AAD"/>
<stop offset="1" stop-color="#212843"/>
</linearGradient>
<linearGradient id="paint2_linear_202_812" x1="31.6287" y1="14.053" x2="21.5081" y2="20.5643" gradientUnits="userSpaceOnUse">
<stop stop-color="#1E6AAD"/>
<stop offset="1" stop-color="#212843"/>
</linearGradient>
</defs>
</svg>
